<svg width="150" height="150" viewBox="0 0 150 150" fill="none" xmlns="http://www.w3.org/2000/svg">
<circle cx="75" cy="75" r="75" fill="#070707"/>
<g clip-path="url(#clip0_44_40)">
<path d="M68.3334 93.5L62.4334 99.2333C60.8863 100.78 58.7879 101.65 56.6 101.65C54.4121 101.65 52.3138 100.78 50.7667 99.2333C49.2196 97.6862 48.3504 95.5879 48.3504 93.4C48.3504 91.2121 49.2196 89.1138 50.7667 87.5667L65.9 72.4C67.3854 70.9098 69.3868 70.0476 71.4901 69.9917C73.5934 69.9359 75.6377 70.6907 77.2 72.1L77.6 72.4333C78.2321 73.0522 79.0842 73.3946 79.9687 73.3852C80.8533 73.3758 81.6979 73.0154 82.3167 72.3833C82.9355 71.7512 83.2779 70.8992 83.2685 70.0146C83.2592 69.1301 82.8988 68.2855 82.2667 67.6667C82.0776 67.4242 81.8774 67.1906 81.6667 66.9667C78.8212 64.491 75.1411 63.1895 71.3719 63.3256C67.6027 63.4618 64.0261 65.0255 61.3667 67.7L46.0334 82.8667C43.4279 85.7026 42.0188 89.4355 42.1003 93.2858C42.1818 97.1361 43.7476 100.806 46.4708 103.529C49.194 106.252 52.8639 107.818 56.7142 107.9C60.5645 107.981 64.2974 106.572 67.1334 103.967L72.9 98.3333C73.4694 97.7122 73.7824 96.8984 73.7761 96.0558C73.7697 95.2132 73.4444 94.4042 72.8657 93.7917C72.287 93.1792 71.4978 92.8086 70.6569 92.7545C69.816 92.7004 68.9858 92.9667 68.3334 93.5ZM103.967 46.0333C101.163 43.2467 97.3699 41.6826 93.4167 41.6826C89.4634 41.6826 85.6708 43.2467 82.8667 46.0333L77.1 51.6667C76.5306 52.2878 76.2176 53.1016 76.224 53.9442C76.2304 54.7868 76.5556 55.5958 77.1343 56.2083C77.713 56.8208 78.5022 57.1914 79.3431 57.2455C80.184 57.2996 81.0142 57.0332 81.6667 56.5L87.4334 50.7667C88.9805 49.2196 91.0788 48.3504 93.2667 48.3504C95.4546 48.3504 97.5529 49.2196 99.1 50.7667C100.647 52.3138 101.516 54.4121 101.516 56.6C101.516 58.7879 100.647 60.8862 99.1 62.4333L83.9667 77.6C82.4813 79.0902 80.48 79.9524 78.3766 80.0082C76.2733 80.0641 74.229 79.3093 72.6667 77.9L72.2667 77.5667C71.6346 76.9478 70.7826 76.6054 69.898 76.6148C69.0135 76.6242 68.1689 76.9846 67.55 77.6167C66.9312 78.2488 66.5888 79.1008 66.5982 79.9853C66.6075 80.8699 66.9679 81.7145 67.6 82.3333C67.8433 82.5798 68.0992 82.8134 68.3667 83.0333C71.2156 85.5015 74.8941 86.7982 78.661 86.6621C82.4279 86.526 86.0033 84.9673 88.6667 82.3L103.833 67.1333C106.638 64.3469 108.226 60.5641 108.251 56.6108C108.276 52.6575 106.736 48.855 103.967 46.0333Z" fill="white"/>
<path d="M93.6406 113.563C91.9063 113.563 90.418 112.941 89.1758 111.699C87.9336 110.457 87.3125 108.969 87.3125 107.234C87.3125 105.5 87.9336 104.012 89.1758 102.77C90.418 101.527 91.9063 100.906 93.6406 100.906C95.375 100.906 96.8633 101.527 98.1055 102.77C99.3477 104.012 99.9688 105.5 99.9688 107.234C99.9688 108.383 99.6758 109.437 99.0898 110.398C98.5273 111.359 97.7656 112.133 96.8047 112.719C95.8672 113.281 94.8125 113.563 93.6406 113.563Z" fill="white"/>
</g>
<defs>
<clipPath id="clip0_44_40">
<rect width="80" height="80" fill="white" transform="translate(35 35)"/>
</clipPath>
</defs>
</svg>
